<?xml version="1.0" encoding="UTF-8" standalone="no"?>
<svg
   xmlns:dc="http://purl.org/dc/elements/1.1/"
   xmlns:cc="http://creativecommons.org/ns#"
   xmlns:rdf="http://www.w3.org/1999/02/22-rdf-syntax-ns#"
   xmlns:svg="http://www.w3.org/2000/svg"
   xmlns="http://www.w3.org/2000/svg"
   xmlns:sodipodi="http://sodipodi.sourceforge.net/DTD/sodipodi-0.dtd"
   xmlns:inkscape="http://www.inkscape.org/namespaces/inkscape"
   width="512"
   height="512"
   viewBox="0 0 135.46666 135.46667"
   version="1.1"
   id="svg8"
   inkscape:version="1.0.2 (e86c870879, 2021-01-15, custom)"
   sodipodi:docname="logo.svg">
  <defs
     id="defs2" />
  <sodipodi:namedview
     id="base"
     pagecolor="#ffffff"
     bordercolor="#666666"
     borderopacity="1.0"
     inkscape:pageopacity="0.0"
     inkscape:pageshadow="2"
     inkscape:zoom="0.7"
     inkscape:cx="38.170306"
     inkscape:cy="343.59784"
     inkscape:document-units="mm"
     inkscape:current-layer="layer1"
     inkscape:document-rotation="0"
     showgrid="false"
     units="px"
     inkscape:window-width="1920"
     inkscape:window-height="1032"
     inkscape:window-x="0"
     inkscape:window-y="22"
     inkscape:window-maximized="1" />
  <metadata
     id="metadata5">
    <rdf:RDF>
      <cc:Work
         rdf:about="">
        <dc:format>image/svg+xml</dc:format>
        <dc:type
           rdf:resource="http://purl.org/dc/dcmitype/StillImage" />
        <dc:title></dc:title>
      </cc:Work>
    </rdf:RDF>
  </metadata>
  <g
     inkscape:label="Ebene 1"
     inkscape:groupmode="layer"
     id="layer1"
     style="display:inline">
    <rect
       style="fill:#ffd42a;stroke-width:0.264583;stroke-opacity:0"
       id="rect103"
       width="78.2071"
       height="78.919388"
       x="31.318554"
       y="26.116444" />
    <g
       style="fill:#000000"
       id="g97"
       transform="matrix(5.2021112,0,0,5.2021112,5.3079989,5.3079989)">
      <path
         d="M 0,0 H 24 V 24 H 0 Z"
         fill="none"
         id="path83" />
      <path
         d="m 18,4 2,3 H 17 L 15,4 h -2 l 2,3 H 12 L 10,4 H 8 l 2,3 H 7 L 5,4 H 4 C 2.9,4 2.01,4.9 2.01,6 L 2,18 c 0,1.1 0.9,2 2,2 h 16 c 1.1,0 2,-0.9 2,-2 V 4 Z M 11.25,15.25 10,18 8.75,15.25 6,14 8.75,12.75 10,10 11.25,12.75 14,14 Z M 16.94,11.94 16,14 15.06,11.94 13,11 15.06,10.06 16,8 16.94,10.06 19,11 Z"
         id="path85" />
    </g>
  </g>
</svg>
